<?xml version="1.0" encoding="UTF-8" standalone="no"?>
<svg width="28px" height="32px" viewBox="0 0 28 32" version="1.1" xmlns="http://www.w3.org/2000/svg" xmlns:xlink="http://www.w3.org/1999/xlink">
    <!-- Generator: Sketch 3.7 (28169) - http://www.bohemiancoding.com/sketch -->
    <title>Imported-Layers</title>
    <desc>Created with Sketch.</desc>
    <defs></defs>
    <g id="Page-1" stroke="none" stroke-width="1" fill="none" fill-rule="evenodd">
        <g id="mask-icon" fill="#BADA8D">
            <g id="Page-1">
                <g id="safari9_icon">
                    <path d="M14.0657582,32 L14.0184023,31.9996903 L13.9710464,31.998658 L13.9237405,31.9970064 L13.8765346,31.9946837 L13.8293787,31.9916901 L13.7823728,31.9880254 L13.7354669,31.9837414 L13.6887111,31.9787348 L13.6421553,31.9731088 L13.5957995,31.9667602 L13.5496437,31.9597923 L13.503738,31.9521533 L13.4580823,31.9438433 L13.4127266,31.934914 L13.367671,31.9252621 L13.3229154,31.9149908 L13.2785598,31.9039969 L13.2345543,31.8923836 L13.1909489,31.8800994 L13.1477935,31.8671441 L13.1050381,31.8535179 L13.0627828,31.8392206 L13.0209776,31.824304 L12.9796725,31.8086648 L12.9389174,31.7924062 L12.8986623,31.7754766 L12.8590574,31.7578761 L12.8200025,31.7396045 L12.7815477,31.720662 L12.743743,31.7010484 L12.7066383,31.6808155 L12.6701838,31.65986 L1.43607951,25.0668731 L1.400025,25.0450918 L1.36417052,25.022433 L1.32846606,24.9988451 L1.29301163,24.9743282 L1.25770721,24.9489338 L1.22265283,24.922662 L1.18779847,24.8955644 L1.15319415,24.8675893 L1.11883985,24.8388916 L1.0847856,24.809368 L1.05098137,24.7790703 L1.01747718,24.7479983 L0.98427303,24.7162554 L0.95141893,24.6837898 L0.91886486,24.6506016 L0.88671084,24.6167941 L0.85485686,24.5823156 L0.82340293,24.5472177 L0.79229904,24.5115004 L0.76164521,24.4752153 L0.73139142,24.4383625 L0.70153769,24.400942 L0.67213402,24.3630053 L0.64313039,24.3245524 L0.61462683,24.285635 L0.58662333,24.2462015 L0.55906988,24.206355 L0.53206651,24.1660441 L0.50551319,24.1253718 L0.47950994,24.0842866 L0.45405676,24.0428401 L0.42915364,24.0009807 L0.4048006,23.9588632 L0.38104763,23.916436 L0.35784473,23.8736475 L0.33529191,23.8306526 L0.31333917,23.7873996 L0.2919865,23.7438885 L0.27128391,23.700171 L0.25128141,23.6562986 L0.23187898,23.6122197 L0.21317665,23.5679861 L0.1952244,23.5236491 L0.17792224,23.4791574 L0.16132017,23.4345624 L0.14551819,23.3899674 L0.1304163,23.3452692 L0.11606451,23.3005194 L0.10246281,23.2557695 L0.08971121,23.2110713 L0.07770971,23.1663215 L0.06650831,23.1216749 L0.05615702,23.0770799 L0.04660583,23.0325365 L0.03795474,22.988148 L0.03010376,22.9438627 L0.02315289,22.8997322 L0.01710214,22.8557566 L0.01190149,22.8119359 L0.00765096,22.7683732 L0.00435054,22.7249653 L0.00195024,22.6818672 L0.00050006,22.6390271 L0,22.596445 L0,9.40350334 L0.00050006,9.36092132 L0.00195024,9.31808123 L0.00435054,9.27493145 L0.00770096,9.23157521 L0.0120015,9.1879609 L0.01720215,9.14419175 L0.02335292,9.10021614 L0.03035379,9.05608568 L0.03820478,9.01180038 L0.04695587,8.96736024 L0.05655707,8.92286848 L0.06700838,8.87827349 L0.07825978,8.83357528 L0.09031129,8.78887706 L0.1032129,8.74412723 L0.11686461,8.69942901 L0.13126641,8.65467918 L0.14646831,8.60998097 L0.1624203,8.56533437 L0.17907238,8.52079099 L0.19647456,8.47629924 L0.21457682,8.43196232 L0.23337917,8.38772864 L0.25288161,8.3436498 L0.27303413,8.29977741 L0.29383673,8.25605987 L0.31528941,8.21254879 L0.33734217,8.16929578 L0.36004501,8.12630085 L0.38334792,8.08351237 L0.40725091,8.0410852 L0.43170396,7.99896771 L0.45670709,7.95715991 L0.48231029,7.9156618 L0.50841355,7.8745766 L0.53506688,7.83390432 L0.56222028,7.79359334 L0.58987373,7.7537469 L0.61802725,7.71436498 L0.64663083,7.67539598 L0.67568446,7.63694313 L0.70523815,7.59900642 L0.7351919,7.56158586 L0.76554569,7.52473306 L0.79629954,7.48844801 L0.82750344,7.45273073 L0.85905738,7.41763283 L0.89096137,7.3831543 L0.92326541,7.34934675 L0.95586948,7.3162102 L0.9888236,7.28369302 L1.02207776,7.25195006 L1.05563195,7.22092971 L1.08948619,7.19063196 L1.12364046,7.16110842 L1.15804476,7.13235911 L1.19269909,7.10443563 L1.22755344,7.07733798 L1.26270784,7.05106616 L1.29801225,7.0256718 L1.33351669,7.00115488 L1.36922115,6.97756702 L1.40512564,6.95485661 L1.44113014,6.93312688 L12.6600325,0.340140005 L12.6964871,0.319236104 L12.7336917,0.298951579 L12.7715464,0.279338043 L12.8101013,0.260395497 L12.8492562,0.242123939 L12.8890611,0.224523372 L12.9294662,0.207593793 L12.9704213,0.191335204 L13.0119265,0.17569599 L13.0539817,0.16077938 L13.0964871,0.146482145 L13.1395424,0.132855899 L13.1829979,0.119900642 L13.2269534,0.107616375 L13.2712589,0.0960030969 L13.3159645,0.0850091938 L13.3610701,0.0747378948 L13.4064758,0.0650859705 L13.4522315,0.0561050356 L13.4982873,0.0478467047 L13.5445931,0.0401561341 L13.5911989,0.0331881674 L13.6380048,0.02689119 L13.6850106,0.0212652021 L13.7322165,0.016258589 L13.7795224,0.0119229653 L13.8270284,0.00830994548 L13.8746343,0.00531630053 L13.9223403,0.00299364496 L13.9700963,0.00129036421 L14.0179022,0.000309687409 L14.0657582,0 L14.1135642,0.000309687409 L14.1613702,0.00129036421 L14.2091761,0.00299364496 L14.2568821,0.00531630053 L14.3044881,0.00830994548 L14.351944,0.0119229653 L14.3992999,0.016258589 L14.4465058,0.0212652021 L14.4935117,0.02689119 L14.5403175,0.0331881674 L14.5868734,0.0401561341 L14.6332292,0.0478467047 L14.6792849,0.0561050356 L14.7249906,0.0650859705 L14.7704463,0.0747378948 L14.8155019,0.0850091938 L14.8602575,0.0960030969 L14.9045631,0.107616375 L14.9485186,0.119900642 L14.991974,0.132855899 L15.0349794,0.146482145 L15.0775347,0.16077938 L15.1195899,0.17569599 L15.1610951,0.191335204 L15.2020503,0.207593793 L15.2424553,0.224523372 L15.2822603,0.242123939 L15.3214152,0.260395497 L15.35997,0.279338043 L15.3978247,0.298951579 L15.4350294,0.319236104 L15.4714839,0.340140005 L26.6347293,6.93312688 L26.6707338,6.95485661 L26.7064383,6.97756702 L26.7418927,7.00115488 L26.7769971,7.0256718 L26.8119015,7.05106616 L26.8464058,7.07733798 L26.8806601,7.10443563 L26.9145643,7.13235911 L26.9481685,7.16110842 L26.9813727,7.19063196 L27.0142768,7.22092971 L27.0467808,7.25195006 L27.0789349,7.28369302 L27.1106888,7.3162102 L27.1420928,7.34934675 L27.1730466,7.3831543 L27.2036005,7.41763283 L27.2337542,7.45273073 L27.2634579,7.48844801 L27.2927616,7.52473306 L27.3215652,7.56158586 L27.3499187,7.59900642 L27.3778222,7.63694313 L27.4052757,7.67539598 L27.432179,7.71436498 L27.4586323,7.7537469 L27.4845356,7.79359334 L27.5099887,7.83390432 L27.5348419,7.8745766 L27.5591949,7.9156618 L27.5829979,7.95715991 L27.6062508,7.99896771 L27.6289536,8.0410852 L27.6510564,8.08351237 L27.6726091,8.12630085 L27.6935117,8.16929578 L27.7138642,8.21254879 L27.7335667,8.25605987 L27.7526691,8.29977741 L27.7711714,8.3436498 L27.7889736,8.38772864 L27.8061758,8.43196232 L27.8226778,8.47629924 L27.8385298,8.52079099 L27.8536817,8.56533437 L27.8681835,8.60998097 L27.8819352,8.65467918 L27.8950369,8.69942901 L27.9073884,8.74412723 L27.9189899,8.78887706 L27.9298912,8.83357528 L27.9400425,8.87827349 L27.9493937,8.92286848 L27.9580448,8.96736024 L27.9658957,9.01180038 L27.9729466,9.05608568 L27.9791974,9.10021614 L27.9846481,9.14419175 L27.9892987,9.1879609 L27.9931491,9.23157521 L27.9961495,9.27493145 L27.9982998,9.31808123 L27.9995499,9.36092132 L28,9.40350334 L28,22.596445 L27.9995999,22.6390271 L27.9982998,22.6818672 L27.9961495,22.7249653 L27.9931991,22.7683732 L27.9893987,22.8119359 L27.9847981,22.8557566 L27.9793974,22.8997322 L27.9731466,22.9438627 L27.9661458,22.988148 L27.9583448,23.0325365 L27.9497937,23.0770799 L27.9404926,23.1216749 L27.9304413,23.1663215 L27.91964,23.2110713 L27.9080885,23.2557695 L27.895787,23.3005194 L27.8828354,23.3452692 L27.8691336,23.3899674 L27.8547818,23.4345624 L27.83968,23.4791574 L27.823928,23.5236491 L27.8075259,23.5679861 L27.7904738,23.6122197 L27.7727716,23.6562986 L27.7544193,23.700171 L27.7354169,23.7438885 L27.7158145,23.7873996 L27.695612,23.8306526 L27.6747593,23.8736475 L27.6533567,23.916436 L27.6313539,23.9588632 L27.6088011,24.0009807 L27.5856482,24.0428401 L27.5619952,24.0842866 L27.5377422,24.1253718 L27.5129891,24.1660441 L27.487686,24.206355 L27.4618827,24.2462015 L27.4355294,24.285635 L27.4087261,24.3245524 L27.3814227,24.3630053 L27.3536192,24.400942 L27.3253657,24.4383625 L27.2966621,24.4752153 L27.2674584,24.5115004 L27.2378547,24.5472177 L27.207801,24.5823156 L27.1773472,24.6167941 L27.1464433,24.6506016 L27.1151894,24.6837898 L27.0834854,24.7162554 L27.0514314,24.7479983 L27.0189774,24.7790703 L26.9861233,24.809368 L26.9529691,24.8388916 L26.9194649,24.8675893 L26.8855607,24.8955644 L26.8514064,24.922662 L26.8169021,24.9489338 L26.7820478,24.9743282 L26.7469434,24.9988451 L26.7114889,25.022433 L26.6757845,25.0450918 L26.63983,25.0668731 L15.4613827,31.65986 L15.4249281,31.6808155 L15.3877735,31.7010484 L15.3499687,31.720662 L15.3115139,31.7396045 L15.2724591,31.7578761 L15.2328541,31.7754766 L15.1925991,31.7924062 L15.151844,31.8086648 L15.1105388,31.824304 L15.0687336,31.8392206 L15.0264783,31.8535179 L14.983723,31.8671441 L14.9405176,31.8800994 L14.8969121,31.8923836 L14.8529566,31.9039969 L14.8085511,31.9149908 L14.7638455,31.9252621 L14.7187898,31.934914 L14.6734342,31.9438433 L14.6277785,31.9521533 L14.5818727,31.9597923 L14.535717,31.9667602 L14.4893612,31.9731088 L14.4428054,31.9787348 L14.3960495,31.9837414 L14.3491436,31.9880254 L14.3020878,31.9916901 L14.2549819,31.9946837 L14.207726,31.9970064 L14.1604701,31.998658 L14.1131141,31.9996903 L14.0657582,32 L14.0657582,32 Z M19.5865497,14.0651163 C19.2814971,14.0651163 19.0339181,13.8150698 19.0339181,13.5069768 L19.0339181,11.5786047 C19.0339181,11.2705116 18.7863392,11.0204651 18.4812865,11.0204651 L16.0752456,11.0204651 L16.0719298,20.4213953 C16.0719298,20.7294884 16.3195088,20.9795349 16.6245614,20.9795349 L18.5426901,20.9795349 C18.8477427,20.9795349 19.0953216,21.2295814 19.0953216,21.5376744 L19.0953216,23.4418605 C19.0953216,23.7499535 18.8477427,24 18.5426901,24 L9.5573099,24 C9.2522573,24 9.0046784,23.7499535 9.0046784,23.4418605 L9.0046784,21.5376744 C9.0046784,21.2295814 9.2522573,20.9795349 9.5573099,20.9795349 L11.4754386,20.9795349 C11.7804912,20.9795349 12.0280702,20.7294884 12.0280702,20.4213953 L12.0247544,11.0204651 L9.6187135,11.0204651 C9.3136608,11.0204651 9.0660819,11.2705116 9.0660819,11.5786047 L9.0660819,13.5069768 C9.0660819,13.8150698 8.8185029,14.0651163 8.5134503,14.0651163 L6.55263158,14.0651163 C6.24757895,14.0651163 6,13.8150698 6,13.5069768 L6,8.55813953 C6,8.25004651 6.24757895,8 6.55263158,8 L21.4473684,8 C21.7524211,8 22,8.25004651 22,8.55813953 L22,13.5069768 C22,13.8150698 21.7524211,14.0651163 21.4473684,14.0651163 L19.5865497,14.0651163 L19.5865497,14.0651163 Z" id="Imported-Layers"></path>
                </g>
            </g>
        </g>
    </g>
</svg>